<svg height="512pt" viewBox="0 0 512 512" width="512pt" xmlns="http://www.w3.org/2000/svg"><path d="m490.667969 171.519531h-469.335938c-11.773437 0-21.332031 9.558594-21.332031 21.332031v255.148438c0 35.285156 28.714844 64 64 64h384c35.285156 0 64-28.714844 64-64v-255.148438c0-11.773437-9.558594-21.332031-21.332031-21.332031zm0 0" fill="#eceff1"/><path d="m448 64h-384c-35.347656 0-64 28.652344-64 64v64.851562h512v-64.851562c0-35.347656-28.652344-64-64-64zm0 0" fill="#2196f3"/><path d="m128 0h-21.332031c-11.777344 0-21.335938 9.558594-21.335938 21.332031v85.335938c0 11.773437 9.558594 21.332031 21.335938 21.332031h21.332031c11.777344 0 21.332031-9.558594 21.332031-21.332031v-85.335938c0-11.773437-9.554687-21.332031-21.332031-21.332031zm0 0" fill="#1976d2"/><path d="m405.332031 0h-21.332031c-11.777344 0-21.332031 9.558594-21.332031 21.332031v85.335938c0 11.773437 9.554687 21.332031 21.332031 21.332031h21.332031c11.777344 0 21.335938-9.558594 21.335938-21.332031v-85.335938c0-11.773437-9.558594-21.332031-21.335938-21.332031zm0 0" fill="#1976d2"/><path d="m234.667969 426.667969c-.535157 0-1.089844-.023438-1.621094-.066407-6.210937-.46875-11.90625-3.625-15.574219-8.660156l-58.667968-80c-6.953126-9.492187-4.90625-22.847656 4.585937-29.824218 9.496094-6.976563 22.847656-4.90625 29.824219 4.585937l43.96875 59.949219 105.089844-105.089844c8.339843-8.339844 21.824218-8.339844 30.164062 0s8.339844 21.824219 0 30.164062l-122.667969 122.667969c-4.03125 4.054688-9.472656 6.273438-15.101562 6.273438zm0 0" fill="#2196f3"/></svg>