<svg id="Flat" height="512" viewBox="0 0 512 512" width="512" xmlns="http://www.w3.org/2000/svg"><rect fill="#ffb632" height="256" rx="32" width="368" x="72" y="48"/><path d="m440 80v9.19l-164.32 92.87a40.177 40.177 0 0 1 -39.36 0l-164.32-92.87v-9.19a31.526 31.526 0 0 1 1-7.94 8.107 8.107 0 0 1 2.94.98l168.25 95.1a24.165 24.165 0 0 0 23.62 0l168.25-95.1a8.107 8.107 0 0 1 2.94-.98 31.526 31.526 0 0 1 1 7.94z" fill="#e09f2c"/><path d="m24 240h464v224h-464z" fill="#9aa3a8"/><path d="m192 304h128v48h-128z" fill="#7e8589"/></svg>